<?xml version="1.0" encoding="UTF-8"?>
<svg width="48px" height="48px" viewBox="0 0 48 48" version="1.1" xmlns="http://www.w3.org/2000/svg" xmlns:xlink="http://www.w3.org/1999/xlink">
    <!-- Generator: Sketch 39.1 (31720) - http://www.bohemiancoding.com/sketch -->
    <title>Fill 33</title>
    <desc>Created with Sketch.</desc>
    <defs></defs>
    <g id="Page-1" stroke="none" stroke-width="1" fill="none" fill-rule="evenodd">
        <g id="ve-1574" transform="translate(-119.000000, -110.000000)" fill="#000000">
            <path d="M165.364901,121.399637 C165.364901,121.399637 165.587901,120.269637 165.162901,118.991637 C164.735901,117.714637 163.926901,117.287637 163.926901,117.287637 C163.925901,117.287637 163.756901,117.819637 163.351901,118.064637 C162.946901,118.309637 162.445901,118.224637 162.445901,118.224637 C162.445901,118.224637 163.438901,122.764637 163.108901,125.306637 C162.778901,127.847637 161.753901,129.627637 161.208901,130.934637 C160.664901,132.241637 159.166901,134.801637 157.723901,136.434637 C156.279901,138.069637 151.921901,142.286637 150.047901,143.491637 C148.173901,144.695637 147.036901,144.847637 147.036901,144.847637 C147.036901,144.847637 148.874901,146.409637 149.767901,146.921637 C150.660901,147.433637 151.224901,147.485637 151.802901,147.472637 C152.379901,147.460637 152.934901,147.323637 153.291901,147.103637 C153.648901,146.884637 154.391901,146.828637 154.666901,147.214637 C154.941901,147.598637 155.023901,148.065637 155.023901,148.065637 C155.023901,148.065637 156.714901,148.120637 157.236901,148.519637 C157.758901,148.918637 157.731901,149.839637 157.731901,149.839637 C157.731901,149.839637 157.438901,148.968637 156.947901,148.968637 C156.455901,148.968637 156.859901,149.517637 156.050901,149.489637 C155.240901,149.460637 152.999901,148.895637 151.105901,148.722637 C149.211901,148.549637 147.215901,148.780637 146.348901,148.895637 C145.480901,149.011637 144.324901,149.315637 143.860901,149.069637 C143.398901,148.823637 143.355901,148.448637 143.355901,148.448637 C143.355901,148.448637 143.181901,148.462637 142.849901,148.737637 C142.516901,149.011637 142.443901,149.388637 142.443901,149.388637 C142.443901,149.388637 142.169901,148.650637 142.704901,148.288637 C143.239901,147.926637 143.571901,147.999637 143.571901,147.999637 C143.571901,147.999637 143.759901,147.696637 144.265901,147.754637 C144.772901,147.811637 147.432901,147.696637 147.707901,147.696637 C147.982901,147.696637 148.358901,147.624637 147.967901,147.276637 C147.577901,146.929637 145.596901,145.050637 145.596901,145.050637 C145.595901,145.050637 143.112901,145.369637 141.028901,145.290637 C138.944901,145.210637 135.867901,145.032637 135.867901,145.032637 C135.867901,145.032637 124.041901,154.922637 121.817901,156.696637 C119.592901,158.471637 118.985901,158.179637 119.300901,156.966637 C119.614901,155.753637 122.558901,151.911637 122.558901,151.911637 C122.557901,151.911637 122.221901,151.349637 122.603901,150.339637 C122.985901,149.327637 123.659901,147.889637 123.659901,147.889637 C123.658901,147.889637 122.593901,149.227637 122.265901,149.642637 C121.937901,150.058637 121.564901,150.256637 121.805901,149.293637 C122.047901,148.330637 124.401901,143.658637 128.101901,138.685637 C131.800901,133.713637 135.579901,130.928637 135.579901,130.928637 C135.579901,130.928637 139.229901,126.407637 141.625901,124.401637 C144.022901,122.395637 146.501901,120.667637 147.087901,120.221637 C147.672901,119.776637 148.062901,119.219637 148.397901,118.466637 C148.731901,117.714637 151.127901,113.367637 153.022901,111.751637 C154.917901,110.134637 158.365901,110.501637 159.587901,110.930637 C160.808901,111.361637 162.047901,112.256637 162.511901,112.789637 C162.976901,113.322637 162.976901,113.753637 162.976901,113.753637 C162.975901,113.753637 164.523901,114.320637 165.367901,115.421637 C166.209901,116.522637 166.932901,118.809637 165.364901,121.399637" id="Fill-33"></path>
        </g>
    </g>
</svg>