<?xml version="1.0" encoding="UTF-8"?>
<svg width="200px" height="200px" viewBox="0 0 200 200" version="1.1" xmlns="http://www.w3.org/2000/svg" xmlns:xlink="http://www.w3.org/1999/xlink">
    <g id="Page-1" stroke="none" stroke-width="1" fill="none" fill-rule="evenodd">
        <g id="Group" transform="translate(1.000000, 10.000000)">
            <ellipse id="Oval" stroke="#000000" stroke-width="11" fill="#FFFFFF" cx="99" cy="90" rx="90" ry="90"></ellipse>
            <g id="Group-2" transform="translate(0.000000, 31.000000)" fill="#000000">
                <path d="M149.292641,27.387547 C147.904992,23.2375992 145.275934,21.8499503 145.275934,21.8499503 C145.272684,21.8499503 144.723474,23.5788244 143.40732,24.3750164 C142.091166,25.1712084 140.463034,24.8949785 140.463034,24.8949785 C140.463034,24.8949785 143.690049,39.648904 142.617627,47.9098023 C141.545206,56.1674509 138.214198,61.9520296 136.443077,66.1994703 C134.675206,70.4469109 129.80706,78.766305 125.117652,84.0731685 C120.424994,89.3865315 106.262525,103.090783 100.172469,107.006748 C94.0824124,110.919463 90.3874315,111.413427 90.3874315,111.413427 C90.3874315,111.413427 96.3604964,116.489558 99.2625351,118.153436 C102.164574,119.817315 103.99744,119.986303 105.875803,119.944056 C107.750917,119.905059 109.554536,119.459841 110.714701,118.744893 C111.874867,118.033195 114.289441,117.851208 115.183126,119.105617 C116.07681,120.353526 116.343291,121.871166 116.343291,121.871166 C116.343291,121.871166 121.838641,122.049903 123.535017,123.346558 C125.231394,124.643214 125.14365,127.636246 125.14365,127.636246 C125.14365,127.636246 124.191469,124.805702 122.595836,124.805702 C120.996952,124.805702 122.309857,126.589822 119.680798,126.498829 C117.04849,126.404585 109.76577,124.568469 103.610718,124.00626 C97.4556667,123.444051 90.9691391,124.194746 88.1515943,124.568469 C85.3307997,124.945442 81.5740734,125.93337 80.0661832,125.133928 C78.5647925,124.334486 78.4250527,123.115825 78.4250527,123.115825 C78.4250527,123.115825 77.8595939,123.161322 76.7806725,124.055007 C75.6985013,124.945442 75.4612686,126.170603 75.4612686,126.170603 C75.4612686,126.170603 74.5708334,123.772277 76.3094568,122.595863 C78.0480802,121.419449 79.1270016,121.656681 79.1270016,121.656681 C79.1270016,121.656681 79.7379571,120.672003 81.3823373,120.860489 C83.0299673,121.045726 91.6743377,120.672003 92.5680226,120.672003 C93.4617076,120.672003 94.6836186,120.43802 93.4129611,119.307102 C92.1455534,118.179435 85.7077723,112.073129 85.7077723,112.073129 C85.7045225,112.073129 77.6353602,113.109804 70.8628535,112.853072 C64.0903467,112.593091 54.090825,112.014634 54.090825,112.014634 C54.090825,112.014634 15.659124,144.154793 8.43165039,149.919873 C1.20092701,155.688203 -0.771679326,154.739272 0.251996119,150.797309 C1.2724218,146.855346 10.839725,134.369755 10.839725,134.369755 C10.8364752,134.369755 9.74455477,132.543388 10.9859644,129.261127 C12.2273739,125.972367 14.4177144,121.299207 14.4177144,121.299207 C14.4144647,121.299207 10.9534667,125.647391 9.88754435,126.996042 C8.82162198,128.347944 7.60946027,128.991397 8.39265323,125.861875 C9.17909595,122.732353 16.8290388,107.549459 28.8531631,91.3883857 C40.8740376,75.2305625 53.1548931,66.1799717 53.1548931,66.1799717 C53.1548931,66.1799717 65.0165293,51.4877917 72.8029622,44.9687665 C80.5926448,38.4497413 88.6488081,32.8341503 90.5531694,31.3847559 C92.4542809,29.9386112 93.7216886,28.128493 94.8103593,25.6814212 C95.8957803,23.2375992 103.682213,9.11087809 109.840515,3.85926057 C115.998816,-1.39560671 127.204,-0.202943574 131.175211,1.19120489 C135.143172,2.59185288 139.169629,5.50039105 140.677519,7.23251489 C142.188659,8.96463874 142.188659,10.3652867 142.188659,10.3652867 C142.185409,10.3652867 147.216043,12.2079025 149.958843,15.7858919 C152.695144,19.3638814 155.044722,26.7960901 149.949094,35.212977 C149.949094,35.212977 150.673791,31.5407445 149.292641,27.387547 Z" id="Fill-33"></path>
                <circle id="Oval-2" stroke="#FFFFFF" cx="131" cy="12" r="2"></circle>
            </g>
        </g>
    </g>
</svg>
